<svg width="1512" height="982" viewBox="0 0 1512 982" fill="none" xmlns="http://www.w3.org/2000/svg">
<g clip-path="url(#clip0_1915_392)">
<rect width="1512" height="982" fill="#1C1E1E"/>
<g opacity="0.21">
<path d="M64.6815 78.4187L92.8129 70.5483L71.1415 161.051L48.3657 146.637L64.6815 78.4187Z" stroke="white" stroke-width="0.596849"/>
<path d="M39.074 73.6703L60.9691 65.9506L39.4563 155.898L22.7153 142.068L39.074 73.6703Z" stroke="white" stroke-width="0.596849"/>
<path d="M21.9083 69.9581L35.9235 58.5813L13.8097 151.041L5.50677 138.535L21.9083 69.9581Z" stroke="white" stroke-width="0.596849"/>
<path d="M171.344 69.9322L199.475 62.0617L177.804 152.564L155.028 138.15L171.344 69.9322Z" stroke="white" stroke-width="0.596849"/>
<path d="M145.736 65.1837L167.631 57.464L146.118 147.412L129.377 133.581L145.736 65.1837Z" stroke="white" stroke-width="0.596849"/>
<path d="M128.57 61.4716L142.586 50.0948L120.472 142.554L112.169 130.048L128.57 61.4716Z" stroke="white" stroke-width="0.596849"/>
<path d="M278.006 61.4457L306.137 53.5753L284.466 144.078L261.69 129.664L278.006 61.4457Z" stroke="white" stroke-width="0.596849"/>
<path d="M252.398 56.6973L274.293 48.9776L252.78 138.925L236.039 125.095L252.398 56.6973Z" stroke="white" stroke-width="0.596849"/>
<path d="M235.233 52.9851L249.248 41.6083L227.134 134.068L218.831 121.562L235.233 52.9851Z" stroke="white" stroke-width="0.596849"/>
<path d="M384.668 52.9592L412.799 45.0887L391.128 135.591L368.352 121.177L384.668 52.9592Z" stroke="white" stroke-width="0.596849"/>
<path d="M359.06 48.2107L380.955 40.491L359.443 130.439L342.702 116.608L359.06 48.2107Z" stroke="white" stroke-width="0.596849"/>
<path d="M341.895 44.4985L355.91 33.1217L333.796 125.581L325.493 113.075L341.895 44.4985Z" stroke="white" stroke-width="0.596849"/>
<path d="M491.328 44.4727L519.459 36.6023L497.788 127.105L475.012 112.691L491.328 44.4727Z" stroke="white" stroke-width="0.596849"/>
<path d="M465.721 39.7243L487.616 32.0045L466.103 121.952L449.362 108.122L465.721 39.7243Z" stroke="white" stroke-width="0.596849"/>
<path d="M448.555 36.0121L462.57 24.6353L440.456 117.095L432.153 104.589L448.555 36.0121Z" stroke="white" stroke-width="0.596849"/>
<path d="M597.992 35.9863L626.123 28.1158L604.452 118.618L581.676 104.204L597.992 35.9863Z" stroke="white" stroke-width="0.596849"/>
<path d="M572.385 31.2378L594.28 23.5181L572.767 113.466L556.026 99.6354L572.385 31.2378Z" stroke="white" stroke-width="0.596849"/>
<path d="M555.219 27.5256L569.234 16.1488L547.12 108.609L538.817 96.1021L555.219 27.5256Z" stroke="white" stroke-width="0.596849"/>
<path d="M704.652 27.4997L732.784 19.6292L711.112 110.132L688.336 95.7178L704.652 27.4997Z" stroke="white" stroke-width="0.596849"/>
<path d="M679.045 22.7512L700.94 15.0315L679.427 104.979L662.686 91.1488L679.045 22.7512Z" stroke="white" stroke-width="0.596849"/>
<path d="M661.879 19.0391L675.894 7.66226L653.78 100.122L645.477 87.6155L661.879 19.0391Z" stroke="white" stroke-width="0.596849"/>
<path d="M811.312 19.0132L839.444 11.1428L817.772 101.645L794.997 87.2313L811.312 19.0132Z" stroke="white" stroke-width="0.596849"/>
<path d="M785.705 14.2648L807.6 6.54508L786.087 96.4926L769.346 82.6624L785.705 14.2648Z" stroke="white" stroke-width="0.596849"/>
<path d="M768.539 10.5526L782.554 -0.82419L760.441 91.6355L752.138 79.1291L768.539 10.5526Z" stroke="white" stroke-width="0.596849"/>
<path d="M917.976 10.5267L946.108 2.65622L924.436 93.1585L901.661 78.7447L917.976 10.5267Z" stroke="white" stroke-width="0.596849"/>
<path d="M892.369 5.77821L914.264 -1.9415L892.751 88.006L876.01 74.1758L892.369 5.77821Z" stroke="white" stroke-width="0.596849"/>
<path d="M875.203 2.06604L889.218 -9.31076L867.105 83.149L858.802 70.6425L875.203 2.06604Z" stroke="white" stroke-width="0.596849"/>
<path d="M1024.64 2.04021L1052.77 -5.83023L1031.1 84.6721L1008.32 70.2583L1024.64 2.04021Z" stroke="white" stroke-width="0.596849"/>
<path d="M999.029 -2.70824L1020.92 -10.4279L999.411 79.5196L982.67 65.6893L999.029 -2.70824Z" stroke="white" stroke-width="0.596849"/>
<path d="M981.863 -6.42042L995.879 -17.7972L973.765 74.6625L965.462 62.1561L981.863 -6.42042Z" stroke="white" stroke-width="0.596849"/>
<path d="M1131.3 -6.44636L1159.43 -14.3168L1137.76 76.1855L1114.98 61.7717L1131.3 -6.44636Z" stroke="white" stroke-width="0.596849"/>
<path d="M1105.69 -11.1948L1127.58 -18.9145L1106.07 71.033L1089.33 57.2028L1105.69 -11.1948Z" stroke="white" stroke-width="0.596849"/>
<path d="M1088.52 -14.907L1102.54 -26.2838L1080.42 66.1759L1072.12 53.6695L1088.52 -14.907Z" stroke="white" stroke-width="0.596849"/>
<path d="M1237.96 -14.9328L1266.09 -22.8033L1244.42 67.6991L1221.64 53.2853L1237.96 -14.9328Z" stroke="white" stroke-width="0.596849"/>
<path d="M1212.35 -19.6813L1234.25 -27.401L1212.74 62.5466L1195.99 48.7163L1212.35 -19.6813Z" stroke="white" stroke-width="0.596849"/>
<path d="M1195.19 -23.3934L1209.2 -34.7702L1187.09 57.6895L1178.79 45.1831L1195.19 -23.3934Z" stroke="white" stroke-width="0.596849"/>
<path d="M1344.62 -23.4194L1372.75 -31.2898L1351.08 59.2125L1328.31 44.7987L1344.62 -23.4194Z" stroke="white" stroke-width="0.596849"/>
<path d="M1319.01 -28.1678L1340.91 -35.8875L1319.4 54.06L1302.65 40.2297L1319.01 -28.1678Z" stroke="white" stroke-width="0.596849"/>
<path d="M1301.85 -31.88L1315.86 -43.2568L1293.75 49.2029L1285.45 36.6965L1301.85 -31.88Z" stroke="white" stroke-width="0.596849"/>
<path d="M1451.29 -31.9058L1479.42 -39.7763L1457.74 50.726L1434.97 36.3122L1451.29 -31.9058Z" stroke="white" stroke-width="0.596849"/>
<path d="M1425.68 -36.6543L1447.57 -44.374L1426.06 45.5735L1409.32 31.7433L1425.68 -36.6543Z" stroke="white" stroke-width="0.596849"/>
<path d="M1408.51 -40.3665L1422.53 -51.7433L1400.41 40.7165L1392.11 28.21L1408.51 -40.3665Z" stroke="white" stroke-width="0.596849"/>
<path d="M74.5722 202.722L102.704 194.852L81.0321 285.354L58.2563 270.94L74.5722 202.722Z" stroke="white" stroke-width="0.596849"/>
<path d="M48.9647 197.974L70.8597 190.254L49.3469 280.202L32.6059 266.371L48.9647 197.974Z" stroke="white" stroke-width="0.596849"/>
<path d="M31.799 194.262L45.8141 182.885L23.7003 275.345L15.3974 262.838L31.799 194.262Z" stroke="white" stroke-width="0.596849"/>
<path d="M181.234 194.236L209.366 186.365L187.694 276.868L164.918 262.454L181.234 194.236Z" stroke="white" stroke-width="0.596849"/>
<path d="M155.627 189.487L177.522 181.768L156.009 271.715L139.268 257.885L155.627 189.487Z" stroke="white" stroke-width="0.596849"/>
<path d="M138.461 185.775L152.476 174.398L130.362 266.858L122.06 254.352L138.461 185.775Z" stroke="white" stroke-width="0.596849"/>
<path d="M287.894 185.749L316.026 177.879L294.354 268.381L271.579 253.968L287.894 185.749Z" stroke="white" stroke-width="0.596849"/>
<path d="M262.287 181.001L284.182 173.281L262.669 263.229L245.928 249.399L262.287 181.001Z" stroke="white" stroke-width="0.596849"/>
<path d="M245.121 177.289L259.136 165.912L237.023 258.372L228.72 245.865L245.121 177.289Z" stroke="white" stroke-width="0.596849"/>
<path d="M394.558 177.263L422.69 169.392L401.018 259.895L378.243 245.481L394.558 177.263Z" stroke="white" stroke-width="0.596849"/>
<path d="M368.951 172.514L390.846 164.795L369.333 254.742L352.592 240.912L368.951 172.514Z" stroke="white" stroke-width="0.596849"/>
<path d="M351.785 168.802L365.8 157.425L343.687 249.885L335.384 237.379L351.785 168.802Z" stroke="white" stroke-width="0.596849"/>
<path d="M501.219 168.776L529.35 160.906L507.679 251.408L484.903 236.994L501.219 168.776Z" stroke="white" stroke-width="0.596849"/>
<path d="M475.611 164.028L497.506 156.308L475.993 246.256L459.252 232.426L475.611 164.028Z" stroke="white" stroke-width="0.596849"/>
<path d="M458.445 160.316L472.461 148.939L450.347 241.399L442.044 228.892L458.445 160.316Z" stroke="white" stroke-width="0.596849"/>
<path d="M607.879 160.29L636.01 152.419L614.339 242.922L591.563 228.508L607.879 160.29Z" stroke="white" stroke-width="0.596849"/>
<path d="M582.271 155.541L604.166 147.822L582.654 237.769L565.913 223.939L582.271 155.541Z" stroke="white" stroke-width="0.596849"/>
<path d="M565.106 151.829L579.121 140.452L557.007 232.912L548.704 220.406L565.106 151.829Z" stroke="white" stroke-width="0.596849"/>
<path d="M714.543 151.803L742.674 143.933L721.003 234.435L698.227 220.021L714.543 151.803Z" stroke="white" stroke-width="0.596849"/>
<path d="M688.935 147.055L710.83 139.335L689.318 229.283L672.577 215.453L688.935 147.055Z" stroke="white" stroke-width="0.596849"/>
<path d="M671.77 143.343L685.785 131.966L663.671 224.426L655.368 211.919L671.77 143.343Z" stroke="white" stroke-width="0.596849"/>
<path d="M821.203 143.317L849.334 135.446L827.663 225.949L804.887 211.535L821.203 143.317Z" stroke="white" stroke-width="0.596849"/>
<path d="M795.596 138.568L817.491 130.849L795.978 220.796L779.237 206.966L795.596 138.568Z" stroke="white" stroke-width="0.596849"/>
<path d="M778.43 134.856L792.445 123.479L770.331 215.939L762.028 203.433L778.43 134.856Z" stroke="white" stroke-width="0.596849"/>
<path d="M927.867 134.83L955.998 126.96L934.327 217.462L911.551 203.048L927.867 134.83Z" stroke="white" stroke-width="0.596849"/>
<path d="M902.26 130.082L924.155 122.362L902.642 212.31L885.901 198.479L902.26 130.082Z" stroke="white" stroke-width="0.596849"/>
<path d="M885.094 126.37L899.109 114.993L876.995 207.453L868.692 194.946L885.094 126.37Z" stroke="white" stroke-width="0.596849"/>
<path d="M1034.53 126.344L1062.66 118.473L1040.99 208.976L1018.21 194.562L1034.53 126.344Z" stroke="white" stroke-width="0.596849"/>
<path d="M1008.92 121.595L1030.81 113.876L1009.3 203.823L992.561 189.993L1008.92 121.595Z" stroke="white" stroke-width="0.596849"/>
<path d="M991.754 117.883L1005.77 106.506L983.655 198.966L975.352 186.46L991.754 117.883Z" stroke="white" stroke-width="0.596849"/>
<path d="M1141.19 117.857L1169.32 109.987L1147.65 200.489L1124.87 186.075L1141.19 117.857Z" stroke="white" stroke-width="0.596849"/>
<path d="M1115.58 113.109L1137.47 105.389L1115.96 195.337L1099.22 181.506L1115.58 113.109Z" stroke="white" stroke-width="0.596849"/>
<path d="M1098.41 109.397L1112.43 98.0199L1090.32 190.48L1082.01 177.973L1098.41 109.397Z" stroke="white" stroke-width="0.596849"/>
<path d="M1247.85 109.371L1275.98 101.5L1254.31 192.003L1231.54 177.589L1247.85 109.371Z" stroke="white" stroke-width="0.596849"/>
<path d="M1222.24 104.622L1244.14 96.9026L1222.63 186.85L1205.89 173.02L1222.24 104.622Z" stroke="white" stroke-width="0.596849"/>
<path d="M1205.08 100.91L1219.09 89.5334L1196.98 181.993L1188.68 169.487L1205.08 100.91Z" stroke="white" stroke-width="0.596849"/>
<path d="M1354.51 100.884L1382.64 93.0139L1360.97 183.516L1338.2 169.102L1354.51 100.884Z" stroke="white" stroke-width="0.596849"/>
<path d="M1328.9 96.1359L1350.8 88.4162L1329.29 178.364L1312.55 164.533L1328.9 96.1359Z" stroke="white" stroke-width="0.596849"/>
<path d="M1311.74 92.4237L1325.75 81.0469L1303.64 173.507L1295.34 161L1311.74 92.4237Z" stroke="white" stroke-width="0.596849"/>
<path d="M1461.18 92.3979L1489.31 84.5274L1467.64 175.03L1444.86 160.616L1461.18 92.3979Z" stroke="white" stroke-width="0.596849"/>
<path d="M1435.57 87.6494L1457.46 79.9297L1435.95 169.877L1419.21 156.047L1435.57 87.6494Z" stroke="white" stroke-width="0.596849"/>
<path d="M1418.4 83.9373L1432.42 72.5605L1410.3 165.02L1402 152.514L1418.4 83.9373Z" stroke="white" stroke-width="0.596849"/>
<path d="M-22.1993 335.513L5.93203 327.642L-15.7394 418.145L-38.5152 403.731L-22.1993 335.513Z" stroke="white" stroke-width="0.596849"/>
<path d="M-47.8068 330.764L-25.9118 323.044L-47.4246 412.992L-64.1656 399.162L-47.8068 330.764Z" stroke="white" stroke-width="0.596849"/>
<path d="M-64.9725 327.052L-50.9573 315.675L-73.0712 408.135L-81.3741 395.628L-64.9725 327.052Z" stroke="white" stroke-width="0.596849"/>
<path d="M84.4628 327.026L112.594 319.156L90.9227 409.658L68.1469 395.244L84.4628 327.026Z" stroke="white" stroke-width="0.596849"/>
<path d="M58.8553 322.278L80.7504 314.558L59.2375 404.505L42.4965 390.675L58.8553 322.278Z" stroke="white" stroke-width="0.596849"/>
<path d="M41.6896 318.565L55.7048 307.189L33.591 399.648L25.288 387.142L41.6896 318.565Z" stroke="white" stroke-width="0.596849"/>
<path d="M191.123 318.54L219.254 310.669L197.583 401.171L174.807 386.758L191.123 318.54Z" stroke="white" stroke-width="0.596849"/>
<path d="M165.515 313.791L187.411 306.071L165.898 396.019L149.157 382.189L165.515 313.791Z" stroke="white" stroke-width="0.596849"/>
<path d="M148.35 310.079L162.365 298.702L140.251 391.162L131.948 378.655L148.35 310.079Z" stroke="white" stroke-width="0.596849"/>
<path d="M297.785 310.053L325.916 302.183L304.245 392.685L281.469 378.271L297.785 310.053Z" stroke="white" stroke-width="0.596849"/>
<path d="M272.178 305.305L294.073 297.585L272.56 387.532L255.819 373.702L272.178 305.305Z" stroke="white" stroke-width="0.596849"/>
<path d="M255.012 301.592L269.027 290.216L246.913 382.675L238.61 370.169L255.012 301.592Z" stroke="white" stroke-width="0.596849"/>
<path d="M404.445 301.567L432.577 293.696L410.905 384.198L388.129 369.785L404.445 301.567Z" stroke="white" stroke-width="0.596849"/>
<path d="M378.838 296.818L400.733 289.098L379.22 379.046L362.479 365.216L378.838 296.818Z" stroke="white" stroke-width="0.596849"/>
<path d="M361.672 293.106L375.687 281.729L353.573 374.189L345.27 361.682L361.672 293.106Z" stroke="white" stroke-width="0.596849"/>
<path d="M511.109 293.08L539.241 285.21L517.569 375.712L494.793 361.298L511.109 293.08Z" stroke="white" stroke-width="0.596849"/>
<path d="M485.502 288.332L507.397 280.612L485.884 370.559L469.143 356.729L485.502 288.332Z" stroke="white" stroke-width="0.596849"/>
<path d="M468.336 284.62L482.351 273.243L460.237 365.702L451.935 353.196L468.336 284.62Z" stroke="white" stroke-width="0.596849"/>
<path d="M617.769 284.594L645.901 276.723L624.229 367.225L601.454 352.812L617.769 284.594Z" stroke="white" stroke-width="0.596849"/>
<path d="M592.162 279.845L614.057 272.125L592.544 362.073L575.803 348.243L592.162 279.845Z" stroke="white" stroke-width="0.596849"/>
<path d="M574.996 276.133L589.011 264.756L566.898 357.216L558.595 344.709L574.996 276.133Z" stroke="white" stroke-width="0.596849"/>
<path d="M724.433 276.107L752.565 268.237L730.893 358.739L708.118 344.325L724.433 276.107Z" stroke="white" stroke-width="0.596849"/>
<path d="M698.826 271.359L720.721 263.639L699.208 353.586L682.467 339.756L698.826 271.359Z" stroke="white" stroke-width="0.596849"/>
<path d="M681.66 267.646L695.675 256.27L673.562 348.729L665.259 336.223L681.66 267.646Z" stroke="white" stroke-width="0.596849"/>
<path d="M831.094 267.621L859.225 259.75L837.554 350.252L814.778 335.839L831.094 267.621Z" stroke="white" stroke-width="0.596849"/>
<path d="M805.486 262.872L827.381 255.152L805.868 345.1L789.127 331.27L805.486 262.872Z" stroke="white" stroke-width="0.596849"/>
<path d="M788.32 259.16L802.336 247.783L780.222 340.243L771.919 327.736L788.32 259.16Z" stroke="white" stroke-width="0.596849"/>
<path d="M937.754 259.134L965.885 251.264L944.214 341.766L921.438 327.352L937.754 259.134Z" stroke="white" stroke-width="0.596849"/>
<path d="M912.146 254.386L934.041 246.666L912.529 336.613L895.788 322.783L912.146 254.386Z" stroke="white" stroke-width="0.596849"/>
<path d="M894.981 250.673L908.996 239.297L886.882 331.756L878.579 319.25L894.981 250.673Z" stroke="white" stroke-width="0.596849"/>
<path d="M1044.42 250.648L1072.55 242.777L1050.88 333.279L1028.1 318.866L1044.42 250.648Z" stroke="white" stroke-width="0.596849"/>
<path d="M1018.81 245.899L1040.71 238.179L1019.19 328.127L1002.45 314.297L1018.81 245.899Z" stroke="white" stroke-width="0.596849"/>
<path d="M1001.64 242.187L1015.66 230.81L993.546 323.27L985.243 310.763L1001.64 242.187Z" stroke="white" stroke-width="0.596849"/>
<path d="M1151.08 242.161L1179.21 234.291L1157.54 324.793L1134.76 310.379L1151.08 242.161Z" stroke="white" stroke-width="0.596849"/>
<path d="M1125.47 237.413L1147.37 229.693L1125.85 319.64L1109.11 305.81L1125.47 237.413Z" stroke="white" stroke-width="0.596849"/>
<path d="M1108.3 233.7L1122.32 222.324L1100.21 314.783L1091.9 302.277L1108.3 233.7Z" stroke="white" stroke-width="0.596849"/>
<path d="M1257.74 233.674L1285.87 225.804L1264.2 316.306L1241.43 301.893L1257.74 233.674Z" stroke="white" stroke-width="0.596849"/>
<path d="M1232.13 228.926L1254.03 221.206L1232.52 311.154L1215.78 297.324L1232.13 228.926Z" stroke="white" stroke-width="0.596849"/>
<path d="M1214.97 225.214L1228.98 213.837L1206.87 306.297L1198.57 293.79L1214.97 225.214Z" stroke="white" stroke-width="0.596849"/>
<path d="M1364.4 225.188L1392.53 217.318L1370.86 307.82L1348.09 293.406L1364.4 225.188Z" stroke="white" stroke-width="0.596849"/>
<path d="M1338.79 220.44L1360.69 212.72L1339.18 302.667L1322.44 288.837L1338.79 220.44Z" stroke="white" stroke-width="0.596849"/>
<path d="M1321.63 216.727L1335.64 205.351L1313.53 297.81L1305.23 285.304L1321.63 216.727Z" stroke="white" stroke-width="0.596849"/>
<path d="M1471.06 216.701L1499.19 208.831L1477.52 299.333L1454.75 284.92L1471.06 216.701Z" stroke="white" stroke-width="0.596849"/>
<path d="M1445.45 211.953L1467.35 204.233L1445.84 294.181L1429.1 280.351L1445.45 211.953Z" stroke="white" stroke-width="0.596849"/>
<path d="M1428.29 208.241L1442.3 196.864L1420.19 289.324L1411.89 276.817L1428.29 208.241Z" stroke="white" stroke-width="0.596849"/>
<path d="M-12.3087 459.816L15.8227 451.946L-5.84875 542.448L-28.6246 528.034L-12.3087 459.816Z" stroke="white" stroke-width="0.596849"/>
<path d="M-37.9162 455.068L-16.0211 447.348L-37.534 537.296L-54.275 523.465L-37.9162 455.068Z" stroke="white" stroke-width="0.596849"/>
<path d="M-55.0819 451.356L-41.0667 439.979L-63.1805 532.439L-71.4835 519.932L-55.0819 451.356Z" stroke="white" stroke-width="0.596849"/>
<path d="M94.3515 451.33L122.483 443.459L100.811 533.962L78.0356 519.548L94.3515 451.33Z" stroke="white" stroke-width="0.596849"/>
<path d="M68.744 446.581L90.639 438.862L69.1262 528.809L52.3852 514.979L68.744 446.581Z" stroke="white" stroke-width="0.596849"/>
<path d="M51.5783 442.869L65.5934 431.492L43.4796 523.952L35.1767 511.446L51.5783 442.869Z" stroke="white" stroke-width="0.596849"/>
<path d="M201.014 442.843L229.145 434.973L207.474 525.475L184.698 511.061L201.014 442.843Z" stroke="white" stroke-width="0.596849"/>
<path d="M175.406 438.095L197.301 430.375L175.788 520.323L159.047 506.492L175.406 438.095Z" stroke="white" stroke-width="0.596849"/>
<path d="M158.24 434.383L172.256 423.006L150.142 515.466L141.839 502.959L158.24 434.383Z" stroke="white" stroke-width="0.596849"/>
<path d="M307.676 434.357L335.807 426.486L314.136 516.989L291.36 502.575L307.676 434.357Z" stroke="white" stroke-width="0.596849"/>
<path d="M282.068 429.608L303.963 421.889L282.45 511.836L265.709 498.006L282.068 429.608Z" stroke="white" stroke-width="0.596849"/>
<path d="M264.902 425.896L278.918 414.519L256.804 506.979L248.501 494.473L264.902 425.896Z" stroke="white" stroke-width="0.596849"/>
<path d="M414.336 425.87L442.467 418L420.796 508.502L398.02 494.088L414.336 425.87Z" stroke="white" stroke-width="0.596849"/>
<path d="M388.728 421.122L410.623 413.402L389.111 503.35L372.37 489.519L388.728 421.122Z" stroke="white" stroke-width="0.596849"/>
<path d="M371.563 417.41L385.578 406.033L363.464 498.493L355.161 485.986L371.563 417.41Z" stroke="white" stroke-width="0.596849"/>
<path d="M521 417.384L549.131 409.513L527.46 500.016L504.684 485.602L521 417.384Z" stroke="white" stroke-width="0.596849"/>
<path d="M495.392 412.635L517.287 404.916L495.775 494.863L479.034 481.033L495.392 412.635Z" stroke="white" stroke-width="0.596849"/>
<path d="M478.227 408.923L492.242 397.546L470.128 490.006L461.825 477.5L478.227 408.923Z" stroke="white" stroke-width="0.596849"/>
<path d="M627.66 408.897L655.791 401.027L634.12 491.529L611.344 477.115L627.66 408.897Z" stroke="white" stroke-width="0.596849"/>
<path d="M602.053 404.149L623.948 396.429L602.435 486.377L585.694 472.546L602.053 404.149Z" stroke="white" stroke-width="0.596849"/>
<path d="M584.887 400.437L598.902 389.06L576.788 481.52L568.485 469.013L584.887 400.437Z" stroke="white" stroke-width="0.596849"/>
<path d="M734.324 400.411L762.455 392.54L740.784 483.043L718.008 468.629L734.324 400.411Z" stroke="white" stroke-width="0.596849"/>
<path d="M708.717 395.662L730.612 387.943L709.099 477.89L692.358 464.06L708.717 395.662Z" stroke="white" stroke-width="0.596849"/>
<path d="M691.551 391.95L705.566 380.573L683.452 473.033L675.149 460.527L691.551 391.95Z" stroke="white" stroke-width="0.596849"/>
<path d="M840.984 391.924L869.116 384.054L847.444 474.556L824.668 460.142L840.984 391.924Z" stroke="white" stroke-width="0.596849"/>
<path d="M815.377 387.176L837.272 379.456L815.759 469.404L799.018 455.573L815.377 387.176Z" stroke="white" stroke-width="0.596849"/>
<path d="M798.211 383.464L812.226 372.087L790.112 464.547L781.81 452.04L798.211 383.464Z" stroke="white" stroke-width="0.596849"/>
<path d="M947.644 383.438L975.776 375.567L954.104 466.07L931.329 451.656L947.644 383.438Z" stroke="white" stroke-width="0.596849"/>
<path d="M922.037 378.689L943.932 370.97L922.419 460.917L905.678 447.087L922.037 378.689Z" stroke="white" stroke-width="0.596849"/>
<path d="M904.871 374.977L918.886 363.6L896.773 456.06L888.47 443.554L904.871 374.977Z" stroke="white" stroke-width="0.596849"/>
<path d="M1054.31 374.951L1082.44 367.081L1060.77 457.583L1037.99 443.169L1054.31 374.951Z" stroke="white" stroke-width="0.596849"/>
<path d="M1028.7 370.203L1050.6 362.483L1029.08 452.431L1012.34 438.6L1028.7 370.203Z" stroke="white" stroke-width="0.596849"/>
<path d="M1011.54 366.491L1025.55 355.114L1003.44 447.574L995.134 435.067L1011.54 366.491Z" stroke="white" stroke-width="0.596849"/>
<path d="M1160.97 366.465L1189.1 358.594L1167.43 449.097L1144.65 434.683L1160.97 366.465Z" stroke="white" stroke-width="0.596849"/>
<path d="M1135.36 361.716L1157.26 353.997L1135.74 443.944L1119 430.114L1135.36 361.716Z" stroke="white" stroke-width="0.596849"/>
<path d="M1118.2 358.004L1132.21 346.627L1110.1 439.087L1101.79 426.581L1118.2 358.004Z" stroke="white" stroke-width="0.596849"/>
<path d="M1267.63 357.978L1295.76 350.108L1274.09 440.61L1251.32 426.196L1267.63 357.978Z" stroke="white" stroke-width="0.596849"/>
<path d="M1242.03 353.23L1263.92 345.51L1242.41 435.458L1225.67 421.627L1242.03 353.23Z" stroke="white" stroke-width="0.596849"/>
<path d="M1224.86 349.518L1238.87 338.141L1216.76 430.601L1208.46 418.094L1224.86 349.518Z" stroke="white" stroke-width="0.596849"/>
<path d="M1374.29 349.492L1402.42 341.621L1380.75 432.124L1357.98 417.71L1374.29 349.492Z" stroke="white" stroke-width="0.596849"/>
<path d="M1348.69 344.743L1370.58 337.024L1349.07 426.971L1332.33 413.141L1348.69 344.743Z" stroke="white" stroke-width="0.596849"/>
<path d="M1331.52 341.031L1345.53 329.654L1323.42 422.114L1315.12 409.608L1331.52 341.031Z" stroke="white" stroke-width="0.596849"/>
<path d="M1480.95 341.005L1509.08 333.135L1487.41 423.637L1464.64 409.223L1480.95 341.005Z" stroke="white" stroke-width="0.596849"/>
<path d="M1455.35 336.257L1477.24 328.537L1455.73 418.485L1438.99 404.654L1455.35 336.257Z" stroke="white" stroke-width="0.596849"/>
<path d="M1438.18 332.545L1452.2 321.168L1430.08 413.628L1421.78 401.121L1438.18 332.545Z" stroke="white" stroke-width="0.596849"/>
<path d="M-2.42003 584.12L25.7113 576.249L4.03992 666.752L-18.7359 652.338L-2.42003 584.12Z" stroke="white" stroke-width="0.596849"/>
<path d="M-28.0275 579.371L-6.13246 571.652L-27.6453 661.599L-44.3863 647.769L-28.0275 579.371Z" stroke="white" stroke-width="0.596849"/>
<path d="M-45.1932 575.659L-31.178 564.282L-53.2919 656.742L-61.5948 644.236L-45.1932 575.659Z" stroke="white" stroke-width="0.596849"/>
<path d="M104.242 575.633L132.373 567.763L110.702 658.265L87.9262 643.852L104.242 575.633Z" stroke="white" stroke-width="0.596849"/>
<path d="M78.6346 570.885L100.53 563.165L79.0168 653.113L62.2758 639.283L78.6346 570.885Z" stroke="white" stroke-width="0.596849"/>
<path d="M61.4689 567.173L75.4841 555.796L53.3702 648.256L45.0673 635.749L61.4689 567.173Z" stroke="white" stroke-width="0.596849"/>
<path d="M210.904 567.147L239.036 559.276L217.364 649.779L194.588 635.365L210.904 567.147Z" stroke="white" stroke-width="0.596849"/>
<path d="M185.297 562.398L207.192 554.679L185.679 644.626L168.938 630.796L185.297 562.398Z" stroke="white" stroke-width="0.596849"/>
<path d="M168.131 558.686L182.146 547.309L160.032 639.769L151.729 627.263L168.131 558.686Z" stroke="white" stroke-width="0.596849"/>
<path d="M317.566 558.66L345.698 550.79L324.026 641.292L301.25 626.879L317.566 558.66Z" stroke="white" stroke-width="0.596849"/>
<path d="M291.959 553.912L313.854 546.192L292.341 636.14L275.6 622.31L291.959 553.912Z" stroke="white" stroke-width="0.596849"/>
<path d="M274.793 550.2L288.808 538.823L266.694 631.283L258.392 618.776L274.793 550.2Z" stroke="white" stroke-width="0.596849"/>
<path d="M424.226 550.174L452.358 542.303L430.686 632.806L407.911 618.392L424.226 550.174Z" stroke="white" stroke-width="0.596849"/>
<path d="M398.619 545.425L420.514 537.706L399.001 627.653L382.26 613.823L398.619 545.425Z" stroke="white" stroke-width="0.596849"/>
<path d="M381.453 541.713L395.468 530.336L373.355 622.796L365.052 610.29L381.453 541.713Z" stroke="white" stroke-width="0.596849"/>
<path d="M530.891 541.687L559.022 533.817L537.35 624.319L514.575 609.905L530.891 541.687Z" stroke="white" stroke-width="0.596849"/>
<path d="M505.283 536.939L527.178 529.219L505.665 619.167L488.924 605.337L505.283 536.939Z" stroke="white" stroke-width="0.596849"/>
<path d="M488.117 533.227L502.133 521.85L480.019 614.31L471.716 601.803L488.117 533.227Z" stroke="white" stroke-width="0.596849"/>
<path d="M637.551 533.201L665.682 525.331L644.011 615.833L621.235 601.419L637.551 533.201Z" stroke="white" stroke-width="0.596849"/>
<path d="M611.943 528.453L633.838 520.733L612.325 610.68L595.584 596.85L611.943 528.453Z" stroke="white" stroke-width="0.596849"/>
<path d="M594.777 524.74L608.793 513.364L586.679 605.823L578.376 593.317L594.777 524.74Z" stroke="white" stroke-width="0.596849"/>
<path d="M744.211 524.714L772.342 516.844L750.671 607.346L727.895 592.932L744.211 524.714Z" stroke="white" stroke-width="0.596849"/>
<path d="M718.603 519.966L740.498 512.246L718.986 602.194L702.245 588.364L718.603 519.966Z" stroke="white" stroke-width="0.596849"/>
<path d="M701.438 516.254L715.453 504.877L693.339 597.337L685.036 584.83L701.438 516.254Z" stroke="white" stroke-width="0.596849"/>
<path d="M850.875 516.228L879.006 508.358L857.335 598.86L834.559 584.446L850.875 516.228Z" stroke="white" stroke-width="0.596849"/>
<path d="M825.267 511.48L847.162 503.76L825.65 593.707L808.909 579.877L825.267 511.48Z" stroke="white" stroke-width="0.596849"/>
<path d="M808.102 507.767L822.117 496.391L800.003 588.85L791.7 576.344L808.102 507.767Z" stroke="white" stroke-width="0.596849"/>
<path d="M957.535 507.741L985.666 499.871L963.995 590.373L941.219 575.959L957.535 507.741Z" stroke="white" stroke-width="0.596849"/>
<path d="M931.928 502.993L953.823 495.273L932.31 585.221L915.569 571.391L931.928 502.993Z" stroke="white" stroke-width="0.596849"/>
<path d="M914.762 499.281L928.777 487.904L906.663 580.364L898.36 567.857L914.762 499.281Z" stroke="white" stroke-width="0.596849"/>
<path d="M1064.2 499.255L1092.33 491.384L1070.66 581.887L1047.88 567.473L1064.2 499.255Z" stroke="white" stroke-width="0.596849"/>
<path d="M1038.59 494.506L1060.49 486.787L1038.97 576.734L1022.23 562.904L1038.59 494.506Z" stroke="white" stroke-width="0.596849"/>
<path d="M1021.43 490.794L1035.44 479.418L1013.33 571.877L1005.02 559.371L1021.43 490.794Z" stroke="white" stroke-width="0.596849"/>
<path d="M1170.86 490.768L1198.99 482.898L1177.32 573.4L1154.54 558.986L1170.86 490.768Z" stroke="white" stroke-width="0.596849"/>
<path d="M1145.25 486.02L1167.15 478.3L1145.63 568.248L1128.89 554.417L1145.25 486.02Z" stroke="white" stroke-width="0.596849"/>
<path d="M1128.09 482.308L1142.1 470.931L1119.99 563.391L1111.68 550.884L1128.09 482.308Z" stroke="white" stroke-width="0.596849"/>
<path d="M1277.52 482.282L1305.65 474.411L1283.98 564.914L1261.2 550.5L1277.52 482.282Z" stroke="white" stroke-width="0.596849"/>
<path d="M1251.91 477.533L1273.81 469.814L1252.29 559.761L1235.55 545.931L1251.91 477.533Z" stroke="white" stroke-width="0.596849"/>
<path d="M1234.75 473.821L1248.76 462.444L1226.65 554.904L1218.34 542.398L1234.75 473.821Z" stroke="white" stroke-width="0.596849"/>
<path d="M1384.18 473.795L1412.31 465.925L1390.64 556.427L1367.87 542.013L1384.18 473.795Z" stroke="white" stroke-width="0.596849"/>
<path d="M1358.58 469.047L1380.47 461.327L1358.96 551.275L1342.22 537.444L1358.58 469.047Z" stroke="white" stroke-width="0.596849"/>
<path d="M1341.41 465.335L1355.43 453.958L1333.31 546.418L1325.01 533.911L1341.41 465.335Z" stroke="white" stroke-width="0.596849"/>
<path d="M1490.84 465.309L1518.98 457.438L1497.3 547.941L1474.53 533.527L1490.84 465.309Z" stroke="white" stroke-width="0.596849"/>
<path d="M1465.24 460.56L1487.13 452.841L1465.62 542.788L1448.88 528.958L1465.24 460.56Z" stroke="white" stroke-width="0.596849"/>
<path d="M1448.07 456.848L1462.09 445.471L1439.97 537.931L1431.67 525.425L1448.07 456.848Z" stroke="white" stroke-width="0.596849"/>
<path d="M7.47059 708.424L35.602 700.553L13.9305 791.056L-8.84525 776.642L7.47059 708.424Z" stroke="white" stroke-width="0.596849"/>
<path d="M-18.1369 703.675L3.75816 695.955L-17.7547 785.903L-34.4957 772.073L-18.1369 703.675Z" stroke="white" stroke-width="0.596849"/>
<path d="M-35.3026 699.963L-21.2874 688.586L-43.4012 781.046L-51.7042 768.539L-35.3026 699.963Z" stroke="white" stroke-width="0.596849"/>
<path d="M114.133 699.937L142.264 692.067L120.593 782.569L97.8169 768.155L114.133 699.937Z" stroke="white" stroke-width="0.596849"/>
<path d="M88.5252 695.189L110.42 687.469L88.9074 777.417L72.1664 763.586L88.5252 695.189Z" stroke="white" stroke-width="0.596849"/>
<path d="M71.3595 691.477L85.3747 680.1L63.2609 772.559L54.9579 760.053L71.3595 691.477Z" stroke="white" stroke-width="0.596849"/>
<path d="M220.795 691.451L248.926 683.58L227.255 774.083L204.479 759.669L220.795 691.451Z" stroke="white" stroke-width="0.596849"/>
<path d="M195.187 686.702L217.082 678.983L195.57 768.93L178.829 755.1L195.187 686.702Z" stroke="white" stroke-width="0.596849"/>
<path d="M178.022 682.99L192.037 671.613L169.923 764.073L161.62 751.567L178.022 682.99Z" stroke="white" stroke-width="0.596849"/>
<path d="M327.457 682.964L355.588 675.094L333.917 765.596L311.141 751.182L327.457 682.964Z" stroke="white" stroke-width="0.596849"/>
<path d="M301.849 678.216L323.744 670.496L302.232 760.444L285.491 746.613L301.849 678.216Z" stroke="white" stroke-width="0.596849"/>
<path d="M284.684 674.504L298.699 663.127L276.585 755.586L268.282 743.08L284.684 674.504Z" stroke="white" stroke-width="0.596849"/>
<path d="M434.117 674.478L462.248 666.607L440.577 757.109L417.801 742.696L434.117 674.478Z" stroke="white" stroke-width="0.596849"/>
<path d="M408.51 669.729L430.405 662.009L408.892 751.957L392.151 738.127L408.51 669.729Z" stroke="white" stroke-width="0.596849"/>
<path d="M391.344 666.017L405.359 654.64L383.245 747.1L374.942 734.593L391.344 666.017Z" stroke="white" stroke-width="0.596849"/>
<path d="M540.781 665.991L568.913 658.121L547.241 748.623L524.465 734.209L540.781 665.991Z" stroke="white" stroke-width="0.596849"/>
<path d="M515.174 661.243L537.069 653.523L515.556 743.471L498.815 729.64L515.174 661.243Z" stroke="white" stroke-width="0.596849"/>
<path d="M498.008 657.531L512.023 646.154L489.909 738.613L481.606 726.107L498.008 657.531Z" stroke="white" stroke-width="0.596849"/>
<path d="M647.441 657.505L675.573 649.634L653.901 740.136L631.125 725.723L647.441 657.505Z" stroke="white" stroke-width="0.596849"/>
<path d="M621.834 652.756L643.729 645.036L622.216 734.984L605.475 721.154L621.834 652.756Z" stroke="white" stroke-width="0.596849"/>
<path d="M604.668 649.044L618.683 637.667L596.569 730.127L588.267 717.62L604.668 649.044Z" stroke="white" stroke-width="0.596849"/>
<path d="M754.101 649.018L782.233 641.148L760.561 731.65L737.786 717.236L754.101 649.018Z" stroke="white" stroke-width="0.596849"/>
<path d="M728.494 644.27L750.389 636.55L728.876 726.497L712.135 712.667L728.494 644.27Z" stroke="white" stroke-width="0.596849"/>
<path d="M711.328 640.557L725.343 629.181L703.23 721.64L694.927 709.134L711.328 640.557Z" stroke="white" stroke-width="0.596849"/>
<path d="M860.766 640.532L888.897 632.661L867.225 723.164L844.45 708.75L860.766 640.532Z" stroke="white" stroke-width="0.596849"/>
<path d="M835.158 635.783L857.053 628.064L835.54 718.011L818.799 704.181L835.158 635.783Z" stroke="white" stroke-width="0.596849"/>
<path d="M817.992 632.071L832.008 620.694L809.894 713.154L801.591 700.648L817.992 632.071Z" stroke="white" stroke-width="0.596849"/>
<path d="M967.426 632.045L995.557 624.175L973.886 714.677L951.11 700.263L967.426 632.045Z" stroke="white" stroke-width="0.596849"/>
<path d="M941.818 627.297L963.713 619.577L942.2 709.524L925.459 695.694L941.818 627.297Z" stroke="white" stroke-width="0.596849"/>
<path d="M924.652 623.584L938.668 612.208L916.554 704.667L908.251 692.161L924.652 623.584Z" stroke="white" stroke-width="0.596849"/>
<path d="M1074.09 623.559L1102.22 615.688L1080.55 706.191L1057.77 691.777L1074.09 623.559Z" stroke="white" stroke-width="0.596849"/>
<path d="M1048.48 618.81L1070.38 611.09L1048.86 701.038L1032.12 687.208L1048.48 618.81Z" stroke="white" stroke-width="0.596849"/>
<path d="M1031.32 615.098L1045.33 603.721L1023.22 696.181L1014.91 683.675L1031.32 615.098Z" stroke="white" stroke-width="0.596849"/>
<path d="M1180.75 615.072L1208.88 607.202L1187.21 697.704L1164.43 683.29L1180.75 615.072Z" stroke="white" stroke-width="0.596849"/>
<path d="M1155.14 610.324L1177.04 602.604L1155.52 692.551L1138.78 678.721L1155.14 610.324Z" stroke="white" stroke-width="0.596849"/>
<path d="M1137.98 606.611L1151.99 595.235L1129.88 687.694L1121.58 675.188L1137.98 606.611Z" stroke="white" stroke-width="0.596849"/>
<path d="M1287.41 606.586L1315.54 598.715L1293.87 689.218L1271.09 674.804L1287.41 606.586Z" stroke="white" stroke-width="0.596849"/>
<path d="M1261.8 601.837L1283.7 594.117L1262.18 684.065L1245.44 670.235L1261.8 601.837Z" stroke="white" stroke-width="0.596849"/>
<path d="M1244.64 598.125L1258.65 586.748L1236.54 679.208L1228.24 666.701L1244.64 598.125Z" stroke="white" stroke-width="0.596849"/>
<path d="M1394.07 598.099L1422.21 590.229L1400.53 680.731L1377.76 666.317L1394.07 598.099Z" stroke="white" stroke-width="0.596849"/>
<path d="M1368.47 593.351L1390.36 585.631L1368.85 675.579L1352.11 661.748L1368.47 593.351Z" stroke="white" stroke-width="0.596849"/>
<path d="M1351.3 589.639L1365.32 578.262L1343.2 670.721L1334.9 658.215L1351.3 589.639Z" stroke="white" stroke-width="0.596849"/>
<path d="M1500.73 589.613L1528.87 581.742L1507.19 672.245L1484.42 657.831L1500.73 589.613Z" stroke="white" stroke-width="0.596849"/>
<path d="M1475.13 584.864L1497.02 577.145L1475.51 667.092L1458.77 653.262L1475.13 584.864Z" stroke="white" stroke-width="0.596849"/>
<path d="M1457.96 581.152L1471.98 569.775L1449.86 662.235L1441.56 649.729L1457.96 581.152Z" stroke="white" stroke-width="0.596849"/>
<path d="M17.3612 832.727L45.4926 824.857L23.8212 915.359L1.04537 900.945L17.3612 832.727Z" stroke="white" stroke-width="0.596849"/>
<path d="M-8.24628 827.979L13.6488 820.259L-7.86404 910.207L-24.6051 896.376L-8.24628 827.979Z" stroke="white" stroke-width="0.596849"/>
<path d="M-25.412 824.267L-11.3968 812.89L-33.5106 905.35L-41.8135 892.843L-25.412 824.267Z" stroke="white" stroke-width="0.596849"/>
<path d="M124.023 824.241L152.155 816.37L130.483 906.873L107.707 892.459L124.023 824.241Z" stroke="white" stroke-width="0.596849"/>
<path d="M98.4158 819.492L120.311 811.773L98.7981 901.72L82.0571 887.89L98.4158 819.492Z" stroke="white" stroke-width="0.596849"/>
<path d="M81.2501 815.78L95.2653 804.403L73.1515 896.863L64.8486 884.357L81.2501 815.78Z" stroke="white" stroke-width="0.596849"/>
<path d="M230.685 815.754L258.817 807.884L237.145 898.386L214.37 883.972L230.685 815.754Z" stroke="white" stroke-width="0.596849"/>
<path d="M205.078 811.006L226.973 803.286L205.46 893.234L188.719 879.403L205.078 811.006Z" stroke="white" stroke-width="0.596849"/>
<path d="M187.912 807.294L201.927 795.917L179.814 888.377L171.511 875.87L187.912 807.294Z" stroke="white" stroke-width="0.596849"/>
<path d="M337.348 807.268L365.479 799.397L343.807 889.9L321.032 875.486L337.348 807.268Z" stroke="white" stroke-width="0.596849"/>
<path d="M311.74 802.519L333.635 794.8L312.122 884.747L295.381 870.917L311.74 802.519Z" stroke="white" stroke-width="0.596849"/>
<path d="M294.574 798.807L308.59 787.43L286.476 879.89L278.173 867.384L294.574 798.807Z" stroke="white" stroke-width="0.596849"/>
<path d="M444.008 798.781L472.139 790.911L450.468 881.413L427.692 866.999L444.008 798.781Z" stroke="white" stroke-width="0.596849"/>
<path d="M418.4 794.033L440.295 786.313L418.782 876.261L402.041 862.43L418.4 794.033Z" stroke="white" stroke-width="0.596849"/>
<path d="M401.235 790.321L415.25 778.944L393.136 871.404L384.833 858.897L401.235 790.321Z" stroke="white" stroke-width="0.596849"/>
<path d="M550.668 790.295L578.799 782.424L557.128 872.927L534.352 858.513L550.668 790.295Z" stroke="white" stroke-width="0.596849"/>
<path d="M525.06 785.546L546.955 777.827L525.443 867.774L508.702 853.944L525.06 785.546Z" stroke="white" stroke-width="0.596849"/>
<path d="M507.895 781.834L521.91 770.457L499.796 862.917L491.493 850.411L507.895 781.834Z" stroke="white" stroke-width="0.596849"/>
<path d="M657.332 781.808L685.463 773.938L663.792 864.44L641.016 850.026L657.332 781.808Z" stroke="white" stroke-width="0.596849"/>
<path d="M631.724 777.06L653.619 769.34L632.107 859.288L615.366 845.457L631.724 777.06Z" stroke="white" stroke-width="0.596849"/>
<path d="M614.559 773.348L628.574 761.971L606.46 854.431L598.157 841.924L614.559 773.348Z" stroke="white" stroke-width="0.596849"/>
<path d="M763.992 773.322L792.123 765.451L770.452 855.954L747.676 841.54L763.992 773.322Z" stroke="white" stroke-width="0.596849"/>
<path d="M738.385 768.573L760.28 760.854L738.767 850.801L722.026 836.971L738.385 768.573Z" stroke="white" stroke-width="0.596849"/>
<path d="M721.219 764.861L735.234 753.484L713.12 845.944L704.817 833.438L721.219 764.861Z" stroke="white" stroke-width="0.596849"/>
<path d="M870.656 764.835L898.788 756.965L877.116 847.467L854.34 833.053L870.656 764.835Z" stroke="white" stroke-width="0.596849"/>
<path d="M845.049 760.087L866.944 752.367L845.431 842.315L828.69 828.484L845.049 760.087Z" stroke="white" stroke-width="0.596849"/>
<path d="M827.883 756.375L841.898 744.998L819.784 837.458L811.481 824.951L827.883 756.375Z" stroke="white" stroke-width="0.596849"/>
<path d="M977.316 756.349L1005.45 748.478L983.776 838.981L961 824.567L977.316 756.349Z" stroke="white" stroke-width="0.596849"/>
<path d="M951.709 751.6L973.604 743.881L952.091 833.828L935.35 819.998L951.709 751.6Z" stroke="white" stroke-width="0.596849"/>
<path d="M934.543 747.888L948.558 736.511L926.444 828.971L918.142 816.465L934.543 747.888Z" stroke="white" stroke-width="0.596849"/>
<path d="M1083.98 747.862L1112.11 739.992L1090.44 830.494L1067.66 816.08L1083.98 747.862Z" stroke="white" stroke-width="0.596849"/>
<path d="M1058.37 743.114L1080.26 735.394L1058.75 825.342L1042.01 811.511L1058.37 743.114Z" stroke="white" stroke-width="0.596849"/>
<path d="M1041.2 739.402L1055.22 728.025L1033.1 820.485L1024.8 807.978L1041.2 739.402Z" stroke="white" stroke-width="0.596849"/>
<path d="M1190.64 739.376L1218.77 731.505L1197.1 822.008L1174.32 807.594L1190.64 739.376Z" stroke="white" stroke-width="0.596849"/>
<path d="M1165.03 734.627L1186.93 726.908L1165.42 816.855L1148.67 803.025L1165.03 734.627Z" stroke="white" stroke-width="0.596849"/>
<path d="M1147.87 730.915L1161.88 719.538L1139.77 811.998L1131.47 799.492L1147.87 730.915Z" stroke="white" stroke-width="0.596849"/>
<path d="M1297.3 730.889L1325.43 723.019L1303.76 813.521L1280.98 799.107L1297.3 730.889Z" stroke="white" stroke-width="0.596849"/>
<path d="M1271.69 726.141L1293.59 718.421L1272.08 808.369L1255.33 794.538L1271.69 726.141Z" stroke="white" stroke-width="0.596849"/>
<path d="M1254.53 722.429L1268.54 711.052L1246.43 803.511L1238.13 791.005L1254.53 722.429Z" stroke="white" stroke-width="0.596849"/>
<path d="M1403.96 722.403L1432.1 714.532L1410.42 805.035L1387.65 790.621L1403.96 722.403Z" stroke="white" stroke-width="0.596849"/>
<path d="M1378.36 717.654L1400.25 709.935L1378.74 799.882L1362 786.052L1378.36 717.654Z" stroke="white" stroke-width="0.596849"/>
<path d="M1361.19 713.942L1375.21 702.565L1353.09 795.025L1344.79 782.519L1361.19 713.942Z" stroke="white" stroke-width="0.596849"/>
<path d="M1510.62 713.916L1538.76 706.046L1517.08 796.548L1494.31 782.134L1510.62 713.916Z" stroke="white" stroke-width="0.596849"/>
<path d="M1485.02 709.168L1506.91 701.448L1485.4 791.396L1468.66 777.565L1485.02 709.168Z" stroke="white" stroke-width="0.596849"/>
<path d="M1467.85 705.456L1481.87 694.079L1459.75 786.539L1451.45 774.032L1467.85 705.456Z" stroke="white" stroke-width="0.596849"/>
<path d="M27.2518 957.031L55.3832 949.161L33.7118 1039.66L10.936 1025.25L27.2518 957.031Z" stroke="white" stroke-width="0.596849"/>
<path d="M1.64435 952.283L23.5394 944.563L2.02659 1034.51L-14.7144 1020.68L1.64435 952.283Z" stroke="white" stroke-width="0.596849"/>
<path d="M-15.5213 948.57L-1.50617 937.194L-23.62 1029.65L-31.9229 1017.15L-15.5213 948.57Z" stroke="white" stroke-width="0.596849"/>
<path d="M133.914 948.545L162.045 940.674L140.374 1031.18L117.598 1016.76L133.914 948.545Z" stroke="white" stroke-width="0.596849"/>
<path d="M108.306 943.796L130.202 936.076L108.689 1026.02L91.9477 1012.19L108.306 943.796Z" stroke="white" stroke-width="0.596849"/>
<path d="M91.1408 940.084L105.156 928.707L83.0421 1021.17L74.7392 1008.66L91.1408 940.084Z" stroke="white" stroke-width="0.596849"/>
<path d="M240.574 940.058L268.705 932.188L247.034 1022.69L224.258 1008.28L240.574 940.058Z" stroke="white" stroke-width="0.596849"/>
<path d="M214.967 935.31L236.862 927.59L215.349 1017.54L198.608 1003.71L214.967 935.31Z" stroke="white" stroke-width="0.596849"/>
<path d="M197.801 931.597L211.816 920.221L189.702 1012.68L181.399 1000.17L197.801 931.597Z" stroke="white" stroke-width="0.596849"/>
<path d="M347.238 931.572L375.37 923.701L353.698 1014.2L330.922 999.79L347.238 931.572Z" stroke="white" stroke-width="0.596849"/>
<path d="M321.631 926.823L343.526 919.103L322.013 1009.05L305.272 995.221L321.631 926.823Z" stroke="white" stroke-width="0.596849"/>
<path d="M304.465 923.111L318.48 911.734L296.366 1004.19L288.063 991.687L304.465 923.111Z" stroke="white" stroke-width="0.596849"/>
<path d="M453.898 923.085L482.03 915.215L460.358 1005.72L437.582 991.303L453.898 923.085Z" stroke="white" stroke-width="0.596849"/>
<path d="M428.291 918.337L450.186 910.617L428.673 1000.56L411.932 986.734L428.291 918.337Z" stroke="white" stroke-width="0.596849"/>
<path d="M411.125 914.624L425.14 903.248L403.026 995.707L394.724 983.201L411.125 914.624Z" stroke="white" stroke-width="0.596849"/>
<path d="M560.558 914.598L588.69 906.728L567.018 997.23L544.243 982.817L560.558 914.598Z" stroke="white" stroke-width="0.596849"/>
<path d="M534.951 909.85L556.846 902.13L535.333 992.078L518.592 978.248L534.951 909.85Z" stroke="white" stroke-width="0.596849"/>
<path d="M517.785 906.138L531.8 894.761L509.687 987.221L501.384 974.714L517.785 906.138Z" stroke="white" stroke-width="0.596849"/>
<path d="M667.223 906.112L695.354 898.242L673.682 988.744L650.907 974.33L667.223 906.112Z" stroke="white" stroke-width="0.596849"/>
<path d="M641.615 901.364L663.51 893.644L641.997 983.591L625.256 969.761L641.615 901.364Z" stroke="white" stroke-width="0.596849"/>
<path d="M624.449 897.651L638.465 886.275L616.351 978.734L608.048 966.228L624.449 897.651Z" stroke="white" stroke-width="0.596849"/>
<path d="M773.883 897.626L802.014 889.755L780.343 980.257L757.567 965.844L773.883 897.626Z" stroke="white" stroke-width="0.596849"/>
<path d="M748.275 892.877L770.17 885.157L748.657 975.105L731.916 961.275L748.275 892.877Z" stroke="white" stroke-width="0.596849"/>
<path d="M731.11 889.165L745.125 877.788L723.011 970.248L714.708 957.741L731.11 889.165Z" stroke="white" stroke-width="0.596849"/>
<path d="M880.547 889.139L908.678 881.269L887.007 971.771L864.231 957.357L880.547 889.139Z" stroke="white" stroke-width="0.596849"/>
<path d="M854.939 884.391L876.834 876.671L855.322 966.618L838.58 952.788L854.939 884.391Z" stroke="white" stroke-width="0.596849"/>
<path d="M837.774 880.678L851.789 869.302L829.675 961.761L821.372 949.255L837.774 880.678Z" stroke="white" stroke-width="0.596849"/>
<path d="M987.207 880.653L1015.34 872.782L993.667 963.284L970.891 948.871L987.207 880.653Z" stroke="white" stroke-width="0.596849"/>
<path d="M961.599 875.904L983.494 868.184L961.982 958.132L945.241 944.302L961.599 875.904Z" stroke="white" stroke-width="0.596849"/>
<path d="M944.434 872.192L958.449 860.815L936.335 953.275L928.032 940.768L944.434 872.192Z" stroke="white" stroke-width="0.596849"/>
<path d="M1093.87 872.166L1122 864.296L1100.33 954.798L1077.55 940.384L1093.87 872.166Z" stroke="white" stroke-width="0.596849"/>
<path d="M1068.26 867.418L1090.15 859.698L1068.64 949.645L1051.9 935.815L1068.26 867.418Z" stroke="white" stroke-width="0.596849"/>
<path d="M1051.09 863.705L1065.11 852.329L1043 944.788L1034.69 932.282L1051.09 863.705Z" stroke="white" stroke-width="0.596849"/>
<path d="M1200.53 863.679L1228.66 855.809L1206.99 946.311L1184.22 931.898L1200.53 863.679Z" stroke="white" stroke-width="0.596849"/>
<path d="M1174.92 858.931L1196.82 851.211L1175.31 941.159L1158.56 927.329L1174.92 858.931Z" stroke="white" stroke-width="0.596849"/>
<path d="M1157.76 855.219L1171.77 843.842L1149.66 936.302L1141.36 923.795L1157.76 855.219Z" stroke="white" stroke-width="0.596849"/>
<path d="M1307.19 855.193L1335.32 847.322L1313.65 937.825L1290.88 923.411L1307.19 855.193Z" stroke="white" stroke-width="0.596849"/>
<path d="M1281.58 850.444L1303.48 842.725L1281.97 932.672L1265.23 918.842L1281.58 850.444Z" stroke="white" stroke-width="0.596849"/>
<path d="M1264.42 846.732L1278.43 835.355L1256.32 927.815L1248.02 915.309L1264.42 846.732Z" stroke="white" stroke-width="0.596849"/>
<path d="M1413.85 846.706L1441.98 838.836L1420.31 929.338L1397.54 914.925L1413.85 846.706Z" stroke="white" stroke-width="0.596849"/>
<path d="M1388.24 841.958L1410.14 834.238L1388.63 924.186L1371.89 910.356L1388.24 841.958Z" stroke="white" stroke-width="0.596849"/>
<path d="M1371.08 838.246L1385.09 826.869L1362.98 919.329L1354.68 906.822L1371.08 838.246Z" stroke="white" stroke-width="0.596849"/>
<path d="M1520.52 838.22L1548.65 830.35L1526.98 920.852L1504.2 906.438L1520.52 838.22Z" stroke="white" stroke-width="0.596849"/>
<path d="M1494.91 833.472L1516.8 825.752L1495.29 915.699L1478.55 901.869L1494.91 833.472Z" stroke="white" stroke-width="0.596849"/>
<path d="M1477.74 829.759L1491.76 818.383L1469.64 910.842L1461.34 898.336L1477.74 829.759Z" stroke="white" stroke-width="0.596849"/>
</g>
</g>
<defs>
<clipPath id="clip0_1915_392">
<rect width="1512" height="982" fill="white"/>
</clipPath>
</defs>
</svg>
